<svg xmlns="http://www.w3.org/2000/svg" width="760" height="520" viewBox="0 0 760 520">
  <defs>
    <linearGradient id="bg" x1="0" y1="0" x2="1" y2="1"><stop offset="0" stop-color="#ff4ecd"/><stop offset=".55" stop-color="#8b5cf6"/><stop offset="1" stop-color="#18e8ff"/></linearGradient>
    <radialGradient id="soft" cx="50%" cy="45%" r="65%"><stop offset="0" stop-color="#ffffff" stop-opacity=".92"/><stop offset=".48" stop-color="#ffffff" stop-opacity=".38"/><stop offset="1" stop-color="#ffffff" stop-opacity=".04"/></radialGradient>
    <linearGradient id="flame" x1="0" y1="0" x2="1" y2="1"><stop stop-color="#fffb7d"/><stop offset="1" stop-color="#ff4ecd"/></linearGradient>
    <filter id="glow"><feGaussianBlur stdDeviation="16" result="b"/><feMerge><feMergeNode in="b"/><feMergeNode in="SourceGraphic"/></feMerge></filter>
  </defs>
  <rect width="760" height="520" rx="44" fill="url(#bg)"/>
  <g opacity=".18"><path d="M0 95 H760 M0 195 H760 M0 295 H760 M0 395 H760 M130 0 V520 M260 0 V520 M390 0 V520 M520 0 V520 M650 0 V520" stroke="#fff" stroke-width="2"/></g>
  <circle cx="650" cy="80" r="92" fill="#fff" opacity=".14"/><circle cx="112" cy="410" r="122" fill="#fff" opacity=".10"/>
  <g filter="url(#glow)">
        <path d="M380 142 C335 80 220 92 205 205 C190 320 330 380 380 430 C430 380 570 320 555 205 C540 92 425 80 380 142Z" fill="url(#soft)" opacity=".86"/>
        <path d="M260 275 H335 L360 225 L405 335 L430 275 H500" fill="none" stroke="#fff" stroke-width="14" stroke-linecap="round" stroke-linejoin="round"/>
        </g>
</svg>