<svg xmlns="http://www.w3.org/2000/svg" width="760" height="520" viewBox="0 0 760 520">
  <defs>
    <linearGradient id="bg" x1="0" y1="0" x2="1" y2="1"><stop offset="0" stop-color="#8b5cf6"/><stop offset=".55" stop-color="#ff4ecd"/><stop offset="1" stop-color="#18e8ff"/></linearGradient>
    <radialGradient id="soft" cx="50%" cy="45%" r="65%"><stop offset="0" stop-color="#ffffff" stop-opacity=".92"/><stop offset=".48" stop-color="#ffffff" stop-opacity=".38"/><stop offset="1" stop-color="#ffffff" stop-opacity=".04"/></radialGradient>
    <linearGradient id="flame" x1="0" y1="0" x2="1" y2="1"><stop stop-color="#fffb7d"/><stop offset="1" stop-color="#ff4ecd"/></linearGradient>
    <filter id="glow"><feGaussianBlur stdDeviation="16" result="b"/><feMerge><feMergeNode in="b"/><feMergeNode in="SourceGraphic"/></feMerge></filter>
  </defs>
  <rect width="760" height="520" rx="44" fill="url(#bg)"/>
  <g opacity=".18"><path d="M0 95 H760 M0 195 H760 M0 295 H760 M0 395 H760 M130 0 V520 M260 0 V520 M390 0 V520 M520 0 V520 M650 0 V520" stroke="#fff" stroke-width="2"/></g>
  <circle cx="650" cy="80" r="92" fill="#fff" opacity=".14"/><circle cx="112" cy="410" r="122" fill="#fff" opacity=".10"/>
  <g filter="url(#glow)">
        <circle cx="380" cy="245" r="130" fill="url(#soft)" opacity=".78"/>
        <rect x="205" y="150" width="350" height="68" rx="24" fill="#fff" opacity=".85"/>
        <rect x="240" y="246" width="280" height="58" rx="22" fill="#fff" opacity=".68"/>
        <rect x="265" y="330" width="230" height="50" rx="20" fill="#fff" opacity=".45"/>
        <circle cx="245" cy="184" r="9" fill="#071122" opacity=".9"/><circle cx="275" cy="184" r="9" fill="#071122" opacity=".8"/><circle cx="305" cy="184" r="9" fill="#071122" opacity=".7"/>
        </g>
</svg>