<svg xmlns="http://www.w3.org/2000/svg" width="760" height="520" viewBox="0 0 760 520">
  <defs>
    <linearGradient id="bg" x1="0" y1="0" x2="1" y2="1"><stop offset="0" stop-color="#43f7b6"/><stop offset=".55" stop-color="#18e8ff"/><stop offset="1" stop-color="#2563eb"/></linearGradient>
    <radialGradient id="soft" cx="50%" cy="45%" r="65%"><stop offset="0" stop-color="#ffffff" stop-opacity=".92"/><stop offset=".48" stop-color="#ffffff" stop-opacity=".38"/><stop offset="1" stop-color="#ffffff" stop-opacity=".04"/></radialGradient>
    <linearGradient id="flame" x1="0" y1="0" x2="1" y2="1"><stop stop-color="#fffb7d"/><stop offset="1" stop-color="#ff4ecd"/></linearGradient>
    <filter id="glow"><feGaussianBlur stdDeviation="16" result="b"/><feMerge><feMergeNode in="b"/><feMergeNode in="SourceGraphic"/></feMerge></filter>
  </defs>
  <rect width="760" height="520" rx="44" fill="url(#bg)"/>
  <g opacity=".18"><path d="M0 95 H760 M0 195 H760 M0 295 H760 M0 395 H760 M130 0 V520 M260 0 V520 M390 0 V520 M520 0 V520 M650 0 V520" stroke="#fff" stroke-width="2"/></g>
  <circle cx="650" cy="80" r="92" fill="#fff" opacity=".14"/><circle cx="112" cy="410" r="122" fill="#fff" opacity=".10"/>
  <g filter="url(#glow)">
        <circle cx="255" cy="315" r="64" fill="none" stroke="#fff" stroke-width="12" opacity=".82"/>
        <circle cx="505" cy="315" r="64" fill="none" stroke="#fff" stroke-width="12" opacity=".82"/>
        <path d="M255 315 L340 220 L410 315 L505 315 L425 205 L340 220" fill="none" stroke="#fff" stroke-width="12" stroke-linecap="round" stroke-linejoin="round"/>
        <path d="M410 315 L335 315 L340 220" fill="none" stroke="#fff" stroke-width="12" stroke-linecap="round"/>
        <path d="M418 205 L460 170 M335 218 L315 170 M300 170 L348 170" stroke="#fff" stroke-width="12" stroke-linecap="round"/>
        </g>
</svg>