<svg xmlns="http://www.w3.org/2000/svg" width="760" height="520" viewBox="0 0 760 520">
  <defs>
    <linearGradient id="bg" x1="0" y1="0" x2="1" y2="1"><stop offset="0" stop-color="#ffb86b"/><stop offset=".55" stop-color="#ff4ecd"/><stop offset="1" stop-color="#8b5cf6"/></linearGradient>
    <radialGradient id="soft" cx="50%" cy="45%" r="65%"><stop offset="0" stop-color="#ffffff" stop-opacity=".92"/><stop offset=".48" stop-color="#ffffff" stop-opacity=".38"/><stop offset="1" stop-color="#ffffff" stop-opacity=".04"/></radialGradient>
    <linearGradient id="flame" x1="0" y1="0" x2="1" y2="1"><stop stop-color="#fffb7d"/><stop offset="1" stop-color="#ff4ecd"/></linearGradient>
    <filter id="glow"><feGaussianBlur stdDeviation="16" result="b"/><feMerge><feMergeNode in="b"/><feMergeNode in="SourceGraphic"/></feMerge></filter>
  </defs>
  <rect width="760" height="520" rx="44" fill="url(#bg)"/>
  <g opacity=".18"><path d="M0 95 H760 M0 195 H760 M0 295 H760 M0 395 H760 M130 0 V520 M260 0 V520 M390 0 V520 M520 0 V520 M650 0 V520" stroke="#fff" stroke-width="2"/></g>
  <circle cx="650" cy="80" r="92" fill="#fff" opacity=".14"/><circle cx="112" cy="410" r="122" fill="#fff" opacity=".10"/>
  <g filter="url(#glow)">
        <rect x="190" y="105" width="380" height="275" rx="34" fill="url(#soft)" opacity=".82"/>
        <g opacity=".92"><rect x="210" y="130" width="42" height="42" rx="10" fill="#fff" opacity="0.25"/><rect x="268" y="130" width="42" height="42" rx="10" fill="#fff" opacity="0.32"/><rect x="326" y="130" width="42" height="42" rx="10" fill="#fff" opacity="0.39"/><rect x="384" y="130" width="42" height="42" rx="10" fill="#fff" opacity="0.46"/><rect x="442" y="130" width="42" height="42" rx="10" fill="#fff" opacity="0.53"/><rect x="500" y="130" width="42" height="42" rx="10" fill="#fff" opacity="0.25"/><rect x="210" y="188" width="42" height="42" rx="10" fill="#fff" opacity="0.32"/><rect x="268" y="188" width="42" height="42" rx="10" fill="#fff" opacity="0.39"/><rect x="326" y="188" width="42" height="42" rx="10" fill="#fff" opacity="0.46"/><rect x="384" y="188" width="42" height="42" rx="10" fill="#fff" opacity="0.53"/><rect x="442" y="188" width="42" height="42" rx="10" fill="#fff" opacity="0.25"/><rect x="500" y="188" width="42" height="42" rx="10" fill="#fff" opacity="0.32"/><rect x="210" y="246" width="42" height="42" rx="10" fill="#fff" opacity="0.39"/><rect x="268" y="246" width="42" height="42" rx="10" fill="#fff" opacity="0.46"/><rect x="326" y="246" width="42" height="42" rx="10" fill="#fff" opacity="0.53"/><rect x="384" y="246" width="42" height="42" rx="10" fill="#fff" opacity="0.25"/><rect x="442" y="246" width="42" height="42" rx="10" fill="#fff" opacity="0.32"/><rect x="500" y="246" width="42" height="42" rx="10" fill="#fff" opacity="0.39"/><rect x="210" y="304" width="42" height="42" rx="10" fill="#fff" opacity="0.46"/><rect x="268" y="304" width="42" height="42" rx="10" fill="#fff" opacity="0.53"/><rect x="326" y="304" width="42" height="42" rx="10" fill="#fff" opacity="0.25"/><rect x="384" y="304" width="42" height="42" rx="10" fill="#fff" opacity="0.32"/><rect x="442" y="304" width="42" height="42" rx="10" fill="#fff" opacity="0.39"/><rect x="500" y="304" width="42" height="42" rx="10" fill="#fff" opacity="0.46"/></g>
        <path d="M210 405 L570 405" stroke="#fff" stroke-width="8" stroke-linecap="round" opacity=".48"/>
        </g>
</svg>