<svg xmlns="http://www.w3.org/2000/svg" width="760" height="520" viewBox="0 0 760 520">
  <defs>
    <linearGradient id="bg" x1="0" y1="0" x2="1" y2="1">
      <stop offset="0" stop-color="#101827"/>
      <stop offset=".45" stop-color="#2563eb"/>
      <stop offset="1" stop-color="#9d4edd"/>
    </linearGradient>
    <linearGradient id="cyan" x1="0" y1="0" x2="1" y2="1">
      <stop stop-color="#18e8ff"/>
      <stop offset="1" stop-color="#43f7b6"/>
    </linearGradient>
    <filter id="glow">
      <feGaussianBlur stdDeviation="14" result="b"/>
      <feMerge><feMergeNode in="b"/><feMergeNode in="SourceGraphic"/></feMerge>
    </filter>
  </defs>
  <rect width="760" height="520" rx="44" fill="url(#bg)"/>
  <g opacity=".16">
    <path d="M0 95 H760 M0 195 H760 M0 295 H760 M0 395 H760 M130 0 V520 M260 0 V520 M390 0 V520 M520 0 V520 M650 0 V520" stroke="#fff" stroke-width="2"/>
  </g>
  <circle cx="615" cy="96" r="92" fill="#fff" opacity=".12"/>
  <circle cx="128" cy="410" r="118" fill="#fff" opacity=".09"/>
  <g filter="url(#glow)">
    <ellipse cx="380" cy="160" rx="170" ry="58" fill="url(#cyan)" opacity=".95"/>
    <path d="M210 160 V330 C210 362 286 388 380 388 C474 388 550 362 550 330 V160" fill="rgba(255,255,255,.20)" stroke="#fff" stroke-opacity=".55" stroke-width="5"/>
    <ellipse cx="380" cy="160" rx="170" ry="58" fill="none" stroke="#fff" stroke-opacity=".82" stroke-width="6"/>
    <path d="M210 245 C210 277 286 303 380 303 C474 303 550 277 550 245" fill="none" stroke="#fff" stroke-opacity=".45" stroke-width="5"/>
    <path d="M210 328 C210 360 286 386 380 386 C474 386 550 360 550 328" fill="none" stroke="#fff" stroke-opacity=".55" stroke-width="5"/>
    <g opacity=".92">
      <rect x="278" y="210" width="72" height="18" rx="9" fill="#fff"/>
      <rect x="365" y="210" width="118" height="18" rx="9" fill="#fff" opacity=".72"/>
      <rect x="260" y="258" width="112" height="18" rx="9" fill="#fff" opacity=".68"/>
      <rect x="390" y="258" width="90" height="18" rx="9" fill="#fff" opacity=".88"/>
      <rect x="300" y="310" width="82" height="18" rx="9" fill="#fff" opacity=".78"/>
      <rect x="400" y="310" width="72" height="18" rx="9" fill="#fff" opacity=".62"/>
    </g>
  </g>
</svg>